# xmcd CD database file
#
# Track frame offsets:
#	150
#	22058
#	41147
#
# Disc length: 819 seconds
#
# Revision: 0
# Processed by: cddbd v1.5.1PL0 Copyright (c) Steve Scherf et al.
# Submitted via: CDex 1.51
#
DISCID=22033103
DTITLE=ポルノグラフィティ - 渦
DYEAR=1900
DGENRE=J-Pop
TTITLE0=渦
TTITLE1=ワールド☆サタデーグラフティ
TTITLE2=蝙蝠
EXTD=
EXTT0=
EXTT1=
EXTT2=
PLAYORDER=
